<?xml version="1.0" encoding="utf-8"?>
<!-- Generator: Adobe Illustrator 19.0.0, SVG Export Plug-In . SVG Version: 6.00 Build 0)  -->
<svg version="1.1" id="Layer_1" xmlns="http://www.w3.org/2000/svg" xmlns:xlink="http://www.w3.org/1999/xlink" x="0px" y="0px"
	 viewBox="0 0 465 65.7" style="enable-background:new 0 0 465 65.7;" xml:space="preserve">
<style type="text/css">
	.st0{fill:#F4F4F4;}
	.st1{fill:#FAAF3A;}
</style>
<g id="XMLID_11_">
	<path id="XMLID_12_" class="st0" d="M195.6,11.9c0-0.1,0.1-0.2,0.2-0.4c0.1-0.1,0.2-0.3,0.4-0.4c0.2-0.1,0.3-0.2,0.5-0.3
		c0.2-0.1,0.3-0.1,0.5-0.1h7.6c0.3,0,0.6,0.1,0.9,0.3c0.2,0.2,0.4,0.4,0.5,0.6l0.7,1.7l15.6,40.4c0.2,0.4,0.1,0.7-0.1,1
		c-0.2,0.2-0.6,0.4-1.1,0.4h-8.6c-0.5,0-0.8-0.1-1.1-0.3c-0.2-0.2-0.4-0.5-0.6-0.8c-0.4-1-0.8-2-1.2-3c-0.4-1-0.8-2-1.1-3h-15.8
		c-0.4,1-0.8,2-1.1,3c-0.4,1-0.8,2-1.1,3c-0.3,0.7-0.8,1.1-1.5,1.1h-8.8c-0.4,0-0.7-0.1-0.9-0.3c-0.2-0.2-0.3-0.5-0.1-0.9
		L195.6,11.9z M201.1,24.6c-0.4,1-0.8,2.1-1.1,3.3c-0.4,1.2-0.8,2.4-1.1,3.5c-0.4,1.2-0.8,2.4-1.1,3.5s-0.8,2.3-1.1,3.3h9.2
		L201.1,24.6z"/>
	<path id="XMLID_15_" class="st0" d="M224.8,12.1c0-0.4,0.1-0.7,0.3-1c0.2-0.2,0.5-0.4,0.8-0.4h28.5c0.5,0,0.8,0.1,1,0.4
		c0.2,0.3,0.3,0.6,0.3,1v7.4c0,0.3-0.1,0.7-0.4,1c-0.2,0.3-0.6,0.5-1,0.5h-18.1v9.2h13.4c0.4,0,0.7,0.1,1,0.3c0.3,0.2,0.4,0.5,0.4,1
		v7.1c0,0.3-0.1,0.7-0.3,1c-0.2,0.3-0.5,0.5-0.9,0.5h-13.4v13.7c0,0.9-0.5,1.3-1.4,1.3h-9.1c-0.7-0.1-1.1-0.5-1.1-1.3V12.1z"/>
	<path id="XMLID_17_" class="st0" d="M259.4,12.1c0-0.4,0.1-0.7,0.3-1c0.2-0.2,0.5-0.4,0.8-0.4h28.5c0.5,0,0.8,0.1,1,0.4
		c0.2,0.3,0.3,0.6,0.3,1v7.4c0,0.3-0.1,0.7-0.4,1c-0.2,0.3-0.6,0.5-1,0.5h-18.1v9.2h13.4c0.4,0,0.7,0.1,1,0.3c0.3,0.2,0.4,0.5,0.4,1
		v7.1c0,0.3-0.1,0.7-0.3,1c-0.2,0.3-0.5,0.5-0.9,0.5h-13.4v13.7c0,0.9-0.5,1.3-1.4,1.3h-9.1c-0.7-0.1-1.1-0.5-1.1-1.3V12.1z"/>
	<path id="XMLID_19_" class="st0" d="M293.9,12c0-0.4,0.1-0.7,0.3-0.9c0.2-0.3,0.5-0.4,1-0.4h8.8c0.3,0,0.6,0.1,1,0.4
		c0.3,0.2,0.5,0.6,0.5,1v41.6c0,0.9-0.5,1.3-1.5,1.3h-8.8c-0.9,0-1.3-0.4-1.3-1.3V12z"/>
	<path id="XMLID_21_" class="st0" d="M311.1,12c0-0.4,0.1-0.7,0.3-0.9c0.2-0.3,0.5-0.4,1-0.4h9.7c0.3,0,0.6,0.1,0.9,0.2
		c0.3,0.1,0.6,0.4,0.8,0.7c2.5,4.1,5,8.1,7.5,12c2.5,4,5,8,7.5,12V11.9c0.1-0.4,0.2-0.6,0.5-0.8c0.2-0.2,0.5-0.3,0.8-0.3h8.5
		c0.4,0,0.8,0.1,1,0.3c0.3,0.2,0.4,0.6,0.4,1v41.8c0,0.4-0.1,0.7-0.4,0.9c-0.2,0.2-0.6,0.3-1,0.3h-9.5c-0.3,0-0.5-0.1-0.7-0.3
		c-0.2-0.2-0.4-0.4-0.6-0.7c-2.6-4.4-5.3-8.7-7.8-13c-2.6-4.3-5.2-8.6-7.9-13v25.6c0,0.4-0.1,0.8-0.3,1c-0.2,0.2-0.6,0.3-1.1,0.3
		h-8.5c-0.5,0-0.8-0.1-1-0.4c-0.2-0.2-0.3-0.6-0.3-0.9V12z"/>
	<path id="XMLID_23_" class="st0" d="M355.9,12c0-0.4,0.1-0.7,0.3-0.9c0.2-0.3,0.5-0.4,1-0.4h8.8c0.3,0,0.6,0.1,1,0.4
		c0.3,0.2,0.5,0.6,0.5,1v41.6c0,0.9-0.5,1.3-1.5,1.3h-8.8c-0.9,0-1.3-0.4-1.3-1.3V12z"/>
	<path id="XMLID_25_" class="st0" d="M370.5,12c0-0.4,0.1-0.7,0.4-1c0.3-0.2,0.6-0.4,1-0.4H404c0.4,0,0.7,0.1,1,0.3
		c0.3,0.2,0.4,0.5,0.5,1v7.4c0,0.4-0.1,0.7-0.4,1c-0.2,0.3-0.6,0.5-1.1,0.5h-10.3v32.6c0,0.4-0.1,0.7-0.4,1c-0.3,0.3-0.6,0.4-1,0.4
		h-8.7c-0.3,0-0.7-0.1-1-0.4c-0.3-0.3-0.4-0.6-0.4-1V20.9h-10.3c-0.4,0-0.7-0.1-1-0.4c-0.3-0.3-0.4-0.6-0.4-1.1V12z"/>
	<path id="XMLID_27_" class="st0" d="M424.8,27.1l7.2-15.4c0.1-0.2,0.2-0.4,0.3-0.5c0.1-0.1,0.2-0.2,0.2-0.2c0.1,0,0.2-0.1,0.3-0.1
		c0.1,0,0.2,0,0.3-0.1h11.5c0.1,0,0.3,0,0.3,0.1c0.1,0.1,0.1,0.2,0.1,0.3c0,0.2-0.1,0.5-0.4,0.7l-14.1,25v16.7
		c0,0.9-0.5,1.4-1.4,1.4h-8.9c-0.4,0-0.7-0.1-0.9-0.4c-0.2-0.2-0.3-0.6-0.3-1V36.9l-14.1-24.9c-0.3-0.3-0.4-0.5-0.4-0.7
		c0-0.1,0-0.2,0.1-0.3c0.1-0.1,0.2-0.1,0.3-0.1h11.5c0.1,0,0.2,0.1,0.3,0.1c0.1,0,0.2,0,0.2,0.1c0.1,0,0.2,0.1,0.2,0.2
		c0.1,0.1,0.2,0.3,0.3,0.5L424.8,27.1z"/>
</g>
<g id="XMLID_3_">
	<path id="XMLID_4_" class="st1" d="M66.3,12.1c0-0.4,0.1-0.7,0.3-1c0.2-0.2,0.5-0.4,0.8-0.4H96c0.5,0,0.8,0.1,1,0.4
		c0.2,0.3,0.3,0.6,0.3,1v7.4c0,0.3-0.1,0.7-0.4,1c-0.2,0.3-0.6,0.5-1,0.5H77.8v9.2h13.4c0.4,0,0.7,0.1,1,0.3c0.3,0.2,0.4,0.5,0.4,1
		v7.1c0,0.3-0.1,0.7-0.3,1C92,39.9,91.7,40,91.3,40H77.8v13.7c0,0.9-0.5,1.3-1.4,1.3h-9.1c-0.7-0.1-1.1-0.5-1.1-1.3V12.1z"/>
	<path id="XMLID_6_" class="st1" d="M112.1,37.3c0,1.5,0.2,2.7,0.6,3.7c0.4,1,0.9,1.9,1.6,2.5c0.7,0.6,1.4,1.1,2.3,1.4
		c0.9,0.3,1.8,0.4,2.8,0.4c1,0,1.9-0.2,2.8-0.5c0.9-0.3,1.7-0.9,2.3-1.6c0.7-0.7,1.2-1.5,1.6-2.6c0.4-1,0.6-2.2,0.6-3.5V12
		c0-0.4,0.1-0.7,0.4-0.9c0.2-0.3,0.6-0.4,1-0.4h8.7c0.5,0,0.8,0.1,1.1,0.4c0.3,0.3,0.4,0.6,0.4,0.9v25.1c0,3.5-0.5,6.4-1.5,8.8
		c-1,2.4-2.4,4.3-4.1,5.7c-1.7,1.4-3.7,2.5-6,3.1c-2.3,0.6-4.7,0.9-7.2,0.9c-2.5,0-4.9-0.3-7.2-1c-2.3-0.6-4.3-1.7-6-3.2
		c-1.7-1.5-3.1-3.4-4.1-5.7c-1-2.4-1.5-5.2-1.5-8.7V12c0-0.3,0.1-0.6,0.3-0.9c0.2-0.3,0.5-0.4,0.8-0.4h8.9c0.3,0,0.6,0.1,0.9,0.4
		c0.3,0.2,0.5,0.6,0.5,0.9V37.3z"/>
	<path id="XMLID_8_" class="st1" d="M142.9,12.1c0-0.4,0.1-0.7,0.3-1c0.2-0.2,0.5-0.4,1-0.4h19.3c2,0,4,0.4,5.8,1.1
		c1.8,0.8,3.3,1.8,4.7,3.1c1.3,1.3,2.4,2.8,3.1,4.6c0.8,1.8,1.1,3.6,1.1,5.6c0,1.4-0.2,2.6-0.6,3.9c-0.4,1.2-0.9,2.4-1.5,3.4
		c-0.7,1.1-1.4,2-2.3,2.9c-0.9,0.9-1.9,1.6-3,2.2l7.7,14.4c0.1,0.3,0.3,0.6,0.5,1c0.2,0.4,0.3,0.7,0.3,1c0,0.3-0.1,0.6-0.3,0.7
		c-0.2,0.2-0.5,0.3-0.8,0.3h-10.2c-0.3,0-0.6-0.1-0.9-0.3c-0.3-0.2-0.4-0.5-0.5-0.8l-7.2-13.6h-4.8v13.4c0,0.9-0.5,1.3-1.4,1.3h-8.9
		c-0.4,0-0.7-0.1-1-0.3c-0.2-0.2-0.4-0.5-0.4-1V12.1z M166.2,25.3c0-0.6-0.1-1.2-0.3-1.8c-0.2-0.6-0.5-1.1-0.9-1.6
		c-0.4-0.5-0.9-0.9-1.4-1.3c-0.6-0.3-1.2-0.6-1.8-0.7c-0.6,0-1.1-0.1-1.6-0.1c-0.5,0-1,0-1.6,0h-4.1v10.9h5.5c0.4,0,0.7,0,1,0
		c0.3,0,0.6,0,0.9-0.1c0.7-0.1,1.3-0.3,1.9-0.6c0.6-0.3,1-0.7,1.4-1.2c0.4-0.5,0.7-1,0.9-1.6C166.1,26.6,166.2,26,166.2,25.3z"/>
</g>
<g id="XMLID_54_">
	<path id="XMLID_55_" class="st1" d="M43.2,48.7c0.2,3.6,0.1,5.5-0.7,6.9c-1.7,2.9-4.6,3-7.5,1.4c-1.3-0.7-2.1-1.2-3.5-3.5
		c0,0-0.6-2-3.8-3.7c-3.1-2-5.2-1.5-5.2-1.5c-2.7-0.1-3.5-0.6-4.7-1.3c-2.9-1.7-4.2-4.3-2.6-7.2c0.8-1.5,2.4-2.4,5.6-4.1
		c0,0,6.2-3.4,10.3-4.3c3-0.6,5.9,1,5.9,1l0.9,0.5l0,0c0,0,3,1.7,3.8,4.6C43,41.7,43.2,48.7,43.2,48.7z M32.5,25.2
		c3,1.7,7.6-0.7,10.4-5.4c2.7-4.7,2.5-9.9-0.6-11.6s-7.6,0.7-10.4,5.4S29.5,23.4,32.5,25.2z M22.5,30.4c2.8,0.3,5.4-3.1,5.8-7.5
		s-1.6-8.1-4.4-8.4s-5.4,3.1-5.8,7.5C17.7,26.4,19.7,30.1,22.5,30.4z M45.2,32.5c3,1.7,7.7-0.7,10.4-5.4c2.7-4.7,2.5-9.9-0.6-11.6
		c-3-1.7-7.6,0.7-10.4,5.4C41.9,25.5,42.2,30.7,45.2,32.5z M58.7,34.5c-1.6-2.3-5.9-2.1-9.5,0.4s-5.2,6.5-3.6,8.8
		c1.6,2.3,5.9,2.1,9.5-0.4C58.7,40.8,60.3,36.8,58.7,34.5z"/>
</g>
</svg>
